<svg width="198" height="57" viewBox="0 0 198 57" fill="none" xmlns="http://www.w3.org/2000/svg">
<path d="M196.211 50.4264C196.211 53.464 193.699 55.9245 190.592 55.9245H6.72164C3.61631 55.9245 1.0957 53.464 1.0957 50.4264V6.58073C1.0957 3.54457 3.61631 1.07544 6.72164 1.07544H190.591C193.699 1.07544 196.21 3.54457 196.21 6.58073L196.211 50.4264Z" fill="url(#paint0_linear_6_5818)"/>
<path d="M190 1.14178C193.383 1.14178 196.137 3.82613 196.137 7.125V49.875C196.137 53.1739 193.383 55.8582 190 55.8582H7.30769C3.92423 55.8582 1.17106 53.1739 1.17106 49.875V7.125C1.17106 3.82613 3.92423 1.14178 7.30769 1.14178H190ZM190 6.50331e-07H7.30769C3.29029 6.50331e-07 0 3.20803 0 7.125V49.875C0 53.792 3.29029 57 7.30769 57H190C194.017 57 197.308 53.792 197.308 49.875V7.125C197.308 3.20803 194.017 6.50331e-07 190 6.50331e-07Z" fill="white"/>
<path d="M44.0337 28.1921C43.9913 23.5993 47.8907 21.3649 48.069 21.2609C45.8606 18.1216 42.4377 17.6927 41.2348 17.6585C38.36 17.3635 35.5714 19.3357 34.1069 19.3357C32.6132 19.3357 30.358 17.687 27.9275 17.7355C24.7998 17.7825 21.8738 19.5481 20.269 22.2898C16.9572 27.88 19.4272 36.0952 22.6002 40.6138C24.1874 42.8269 26.0421 45.2978 28.4697 45.2109C30.8447 45.1154 31.7319 43.7346 34.598 43.7346C37.4377 43.7346 38.2708 45.2109 40.7467 45.1553C43.2956 45.1154 44.9003 42.9323 46.432 40.6993C48.2663 38.1628 49.0029 35.6648 49.0321 35.5366C48.9722 35.5166 44.0819 33.6969 44.0337 28.1921Z" fill="white"/>
<path d="M39.3567 14.686C40.6341 13.1284 41.5081 11.0095 41.2655 8.85913C39.4167 8.93893 37.1045 10.106 35.773 11.6293C34.595 12.9717 33.5427 15.1719 33.8146 17.241C35.8914 17.392 38.0238 16.2193 39.3567 14.686Z" fill="white"/>
<path d="M71.6883 14.2628C71.6883 15.94 71.1724 17.2025 70.142 18.0504C69.1876 18.8327 67.8313 19.2246 66.0745 19.2246C65.2034 19.2246 64.4581 19.1876 63.834 19.1135V9.94929C64.6481 9.82104 65.525 9.75549 66.4721 9.75549C68.1455 9.75549 69.4068 10.1103 70.2575 10.82C71.2104 11.6222 71.6883 12.7694 71.6883 14.2628ZM70.0733 14.3041C70.0733 13.2168 69.7781 12.3832 69.1876 11.8018C68.5971 11.2218 67.7348 10.9311 66.5992 10.9311C66.1169 10.9311 65.7062 10.9625 65.3657 11.028V17.9948C65.5542 18.0233 65.8991 18.0362 66.4004 18.0362C67.5726 18.0362 68.4773 17.7184 69.1145 17.0828C69.7518 16.4473 70.0733 15.521 70.0733 14.3041Z" fill="white"/>
<path d="M80.2509 15.7278C80.2509 16.7609 79.9483 17.6074 79.3432 18.2714C78.7089 18.954 77.8685 19.2946 76.8192 19.2946C75.8078 19.2946 75.0025 18.9682 74.4018 18.3127C73.8025 17.6587 73.5029 16.8336 73.5029 15.8389C73.5029 14.7987 73.8113 13.9451 74.431 13.2825C75.0507 12.6199 75.8838 12.2878 76.9332 12.2878C77.9445 12.2878 78.7572 12.6142 79.3725 13.2682C79.9571 13.9038 80.2509 14.7246 80.2509 15.7278ZM78.6622 15.7762C78.6622 15.1564 78.5248 14.6248 78.2515 14.1817C77.9299 13.6459 77.4725 13.378 76.8776 13.378C76.2623 13.378 75.7946 13.6459 75.4731 14.1817C75.1983 14.6248 75.0624 15.1649 75.0624 15.8033C75.0624 16.4232 75.1998 16.9547 75.4731 17.3979C75.8049 17.9337 76.2667 18.2016 76.863 18.2016C77.4476 18.2016 77.9065 17.9294 78.2369 17.3836C78.5204 16.9319 78.6622 16.3961 78.6622 15.7762Z" fill="white"/>
<path d="M91.7333 12.4246L89.5775 19.142H88.1744L87.2814 16.225C87.0549 15.4969 86.8707 14.773 86.7275 14.0548H86.6997C86.5667 14.7929 86.3826 15.5154 86.1458 16.225L85.1973 19.142H83.7781L81.751 12.4246H83.3251L84.104 15.618C84.2926 16.3732 84.4475 17.0929 84.5717 17.774H84.5995C84.7135 17.2126 84.902 16.4972 85.168 15.6322L86.1458 12.426H87.394L88.3308 15.5638C88.5574 16.3291 88.7415 17.0658 88.8833 17.7754H88.9257C89.0294 17.0843 89.1858 16.3476 89.3934 15.5638L90.2294 12.426H91.7333V12.4246Z" fill="white"/>
<path d="M99.6738 19.1421H98.1421V15.2946C98.1421 14.109 97.6803 13.5162 96.7537 13.5162C96.2991 13.5162 95.9323 13.6786 95.6473 14.005C95.3652 14.3313 95.222 14.716 95.222 15.1564V19.1407H93.6903V14.3441C93.6903 13.7542 93.6713 13.1143 93.6348 12.4218H94.9808L95.0525 13.472H95.0948C95.2731 13.1457 95.5391 12.8764 95.8885 12.6612C96.3035 12.4104 96.7683 12.2836 97.2769 12.2836C97.92 12.2836 98.4549 12.4859 98.8802 12.892C99.4093 13.3894 99.6738 14.1318 99.6738 15.1179V19.1421Z" fill="white"/>
<path d="M103.897 19.142H102.367V9.34229H103.897V19.142Z" fill="white"/>
<path d="M112.915 15.7278C112.915 16.7609 112.612 17.6074 112.007 18.2714C111.373 18.954 110.531 19.2946 109.483 19.2946C108.47 19.2946 107.665 18.9682 107.066 18.3127C106.467 17.6587 106.167 16.8336 106.167 15.8389C106.167 14.7987 106.475 13.9451 107.095 13.2825C107.715 12.6199 108.548 12.2878 109.596 12.2878C110.609 12.2878 111.42 12.6142 112.037 13.2682C112.621 13.9038 112.915 14.7246 112.915 15.7278ZM111.325 15.7762C111.325 15.1564 111.187 14.6248 110.914 14.1817C110.594 13.6459 110.135 13.378 109.542 13.378C108.925 13.378 108.457 13.6459 108.137 14.1817C107.862 14.6248 107.726 15.1649 107.726 15.8033C107.726 16.4232 107.864 16.9547 108.137 17.3979C108.469 17.9337 108.931 18.2016 109.527 18.2016C110.112 18.2016 110.569 17.9294 110.899 17.3836C111.184 16.9319 111.325 16.3961 111.325 15.7762Z" fill="white"/>
<path d="M120.328 19.1421H118.953L118.839 18.3683H118.796C118.326 18.9853 117.655 19.2946 116.784 19.2946C116.133 19.2946 115.607 19.0908 115.211 18.6861C114.852 18.3184 114.672 17.861 114.672 17.3181C114.672 16.4973 115.023 15.8717 115.729 15.4385C116.433 15.0053 117.424 14.793 118.7 14.803V14.6776C118.7 13.7926 118.223 13.3509 117.269 13.3509C116.589 13.3509 115.99 13.5176 115.473 13.8482L115.161 12.8678C115.802 12.4816 116.592 12.2878 117.525 12.2878C119.325 12.2878 120.229 13.2141 120.229 15.0666V17.5404C120.229 18.2116 120.262 18.7459 120.328 19.1421ZM118.738 16.8336V15.7976C117.048 15.7691 116.204 16.2208 116.204 17.1514C116.204 17.5019 116.3 17.7641 116.497 17.9394C116.695 18.1147 116.946 18.2016 117.246 18.2016C117.582 18.2016 117.896 18.0976 118.182 17.8909C118.47 17.6829 118.647 17.4193 118.713 17.0958C118.729 17.0231 118.738 16.9348 118.738 16.8336Z" fill="white"/>
<path d="M129.031 19.142H127.672L127.6 18.0633H127.558C127.124 18.8841 126.384 19.2945 125.345 19.2945C124.515 19.2945 123.824 18.9767 123.275 18.3412C122.727 17.7056 122.454 16.8805 122.454 15.8674C122.454 14.7801 122.751 13.8994 123.347 13.2268C123.924 12.5998 124.632 12.2863 125.474 12.2863C126.399 12.2863 127.046 12.5899 127.415 13.1983H127.444V9.34229H128.977V17.3323C128.977 17.9863 128.994 18.5891 129.031 19.142ZM127.444 16.3091V15.1891C127.444 14.9953 127.429 14.8385 127.401 14.7188C127.315 14.3597 127.13 14.0576 126.847 13.8139C126.562 13.5703 126.219 13.4477 125.823 13.4477C125.251 13.4477 124.804 13.6686 124.475 14.1118C124.149 14.5549 123.984 15.1207 123.984 15.8118C123.984 16.4758 124.141 17.0145 124.455 17.4292C124.787 17.8709 125.234 18.0918 125.794 18.0918C126.296 18.0918 126.698 17.908 127.004 17.5389C127.299 17.1983 127.444 16.7879 127.444 16.3091Z" fill="white"/>
<path d="M142.132 15.7278C142.132 16.7609 141.829 17.6074 141.224 18.2714C140.59 18.954 139.751 19.2946 138.7 19.2946C137.69 19.2946 136.885 18.9682 136.283 18.3127C135.683 17.6587 135.384 16.8336 135.384 15.8389C135.384 14.7987 135.692 13.9451 136.312 13.2825C136.932 12.6199 137.765 12.2878 138.815 12.2878C139.825 12.2878 140.639 12.6142 141.253 13.2682C141.838 13.9038 142.132 14.7246 142.132 15.7278ZM140.544 15.7762C140.544 15.1564 140.407 14.6248 140.134 14.1817C139.811 13.6459 139.355 13.378 138.758 13.378C138.145 13.378 137.677 13.6459 137.354 14.1817C137.079 14.6248 136.943 15.1649 136.943 15.8033C136.943 16.4232 137.081 16.9547 137.354 17.3979C137.686 17.9337 138.148 18.2016 138.744 18.2016C139.328 18.2016 139.789 17.9294 140.119 17.3836C140.401 16.9319 140.544 16.3961 140.544 15.7762Z" fill="white"/>
<path d="M150.367 19.1421H148.836V15.2946C148.836 14.109 148.375 13.5162 147.447 13.5162C146.992 13.5162 146.625 13.6786 146.342 14.005C146.058 14.3313 145.916 14.716 145.916 15.1564V19.1407H144.383V14.3441C144.383 13.7542 144.366 13.1143 144.329 12.4218H145.674L145.745 13.472H145.788C145.967 13.1457 146.233 12.8764 146.581 12.6612C146.998 12.4104 147.461 12.2836 147.971 12.2836C148.613 12.2836 149.148 12.4859 149.573 12.892C150.104 13.3894 150.367 14.1318 150.367 15.1179V19.1421Z" fill="white"/>
<path d="M160.676 13.5433H158.989V16.8065C158.989 17.6359 159.289 18.0506 159.882 18.0506C160.157 18.0506 160.385 18.0278 160.564 17.9807L160.604 19.1136C160.301 19.2248 159.904 19.2803 159.414 19.2803C158.809 19.2803 158.339 19.1008 157.998 18.7417C157.656 18.3826 157.486 17.7784 157.486 16.9305V13.5433H156.479V12.4247H157.486V11.1935L158.987 10.7517V12.4232H160.674V13.5433H160.676Z" fill="white"/>
<path d="M168.783 19.142H167.25V15.323C167.25 14.1189 166.788 13.5161 165.863 13.5161C165.153 13.5161 164.668 13.8652 164.402 14.5635C164.356 14.7103 164.33 14.8898 164.33 15.1007V19.1406H162.8V9.34229H164.33V13.3907H164.359C164.842 12.654 165.533 12.2863 166.429 12.2863C167.063 12.2863 167.588 12.4887 168.004 12.8948C168.523 13.4007 168.783 14.1531 168.783 15.1477V19.142Z" fill="white"/>
<path d="M177.149 15.4656C177.149 15.7335 177.128 15.9586 177.092 16.1425H172.498C172.519 16.8065 172.738 17.3124 173.163 17.6629C173.552 17.9764 174.053 18.1332 174.667 18.1332C175.347 18.1332 175.966 18.0277 176.525 17.8154L176.764 18.8528C176.111 19.1293 175.342 19.2675 174.452 19.2675C173.385 19.2675 172.545 18.9611 171.937 18.3484C171.326 17.7356 171.023 16.9134 171.023 15.8817C171.023 14.8685 171.306 14.0249 171.874 13.3523C172.467 12.6341 173.27 12.275 174.283 12.275C175.274 12.275 176.026 12.6341 176.535 13.3523C176.946 13.9223 177.149 14.6277 177.149 15.4656ZM175.687 15.0794C175.699 14.6362 175.598 14.2543 175.391 13.9323C175.125 13.5176 174.72 13.3096 174.172 13.3096C173.672 13.3096 173.264 13.5119 172.953 13.918C172.698 14.2415 172.548 14.6277 172.498 15.0794H175.687Z" fill="white"/>
<path d="M78.4038 44.8931H75.0846L73.2665 39.3228H66.9468L65.2149 44.8931H61.9834L68.2446 25.9292H72.1119L78.4038 44.8931ZM72.7184 36.9858L71.0742 32.0339C70.9002 31.528 70.5743 30.3367 70.0935 28.4614H70.035C69.8435 29.268 69.5352 30.4593 69.1113 32.0339L67.4963 36.9858H72.7184Z" fill="white"/>
<path d="M94.5051 37.8878C94.5051 40.2134 93.8606 42.0517 92.5715 43.4012C91.4169 44.6024 89.9831 45.2024 88.2716 45.2024C86.4243 45.2024 85.0972 44.5554 84.2889 43.2615H84.2305V50.4649H81.1145V35.7204C81.1145 34.2584 81.075 32.7578 80.999 31.2188H83.7394L83.9133 33.3863H83.9718C85.0109 31.7532 86.5879 30.9381 88.7043 30.9381C90.3587 30.9381 91.7399 31.5751 92.8448 32.8505C93.9526 34.1273 94.5051 35.8059 94.5051 37.8878ZM91.3306 37.999C91.3306 36.668 91.0237 35.5708 90.4069 34.7072C89.7332 33.8066 88.8285 33.3563 87.6943 33.3563C86.9256 33.3563 86.2269 33.6071 85.6029 34.1016C84.9773 34.6004 84.5681 35.2516 84.3766 36.0581C84.2802 36.4343 84.2319 36.7421 84.2319 36.9844V39.2644C84.2319 40.259 84.5447 41.0984 85.1703 41.7838C85.7958 42.4692 86.6084 42.8112 87.6081 42.8112C88.7817 42.8112 89.6952 42.3695 90.3485 41.4888C91.0033 40.6067 91.3306 39.4439 91.3306 37.999Z" fill="white"/>
<path d="M110.636 37.8878C110.636 40.2134 109.992 42.0517 108.701 43.4012C107.548 44.6024 106.114 45.2024 104.403 45.2024C102.556 45.2024 101.229 44.5554 100.422 43.2615H100.363V50.4649H97.2473V35.7204C97.2473 34.2584 97.2078 32.7578 97.1318 31.2188H99.8722L100.046 33.3863H100.105C101.142 31.7532 102.719 30.9381 104.837 30.9381C106.49 30.9381 107.871 31.5751 108.979 32.8505C110.083 34.1273 110.636 35.8059 110.636 37.8878ZM107.462 37.999C107.462 36.668 107.154 35.5708 106.537 34.7072C105.863 33.8066 104.961 33.3563 103.826 33.3563C103.055 33.3563 102.358 33.6071 101.733 34.1016C101.107 34.6004 100.699 35.2516 100.508 36.0581C100.413 36.4343 100.363 36.7421 100.363 36.9844V39.2644C100.363 40.259 100.676 41.0984 101.299 41.7838C101.924 42.4678 102.737 42.8112 103.739 42.8112C104.913 42.8112 105.827 42.3695 106.48 41.4888C107.135 40.6067 107.462 39.4439 107.462 37.999Z" fill="white"/>
<path d="M128.672 39.575C128.672 41.1881 128.098 42.5006 126.944 43.5137C125.677 44.621 123.913 45.1739 121.646 45.1739C119.553 45.1739 117.876 44.7806 116.605 43.9925L117.327 41.4603C118.695 42.2669 120.196 42.6716 121.832 42.6716C123.006 42.6716 123.919 42.4122 124.575 41.8964C125.229 41.3805 125.554 40.688 125.554 39.8244C125.554 39.0549 125.286 38.4065 124.746 37.8807C124.21 37.3549 123.314 36.8661 122.063 36.4144C118.657 35.1761 116.956 33.362 116.956 30.9766C116.956 29.4176 117.553 28.1394 118.747 27.1448C119.936 26.1487 121.524 25.6514 123.508 25.6514C125.278 25.6514 126.749 25.952 127.922 26.552L127.143 29.0286C126.047 28.4472 124.808 28.1565 123.421 28.1565C122.324 28.1565 121.468 28.4201 120.854 28.9445C120.335 29.4134 120.075 29.9848 120.075 30.6617C120.075 31.4112 120.372 32.0311 120.968 32.5184C121.487 32.9687 122.43 33.4561 123.798 33.9819C125.471 34.6388 126.7 35.4069 127.491 36.2876C128.279 37.1654 128.672 38.264 128.672 39.575Z" fill="white"/>
<path d="M138.974 33.4988H135.539V40.1379C135.539 41.8265 136.144 42.6701 137.357 42.6701C137.914 42.6701 138.376 42.6231 138.741 42.529L138.828 44.8361C138.214 45.0598 137.406 45.1724 136.404 45.1724C135.174 45.1724 134.212 44.8062 133.518 44.0752C132.827 43.3427 132.479 42.1144 132.479 40.3887V33.496H130.433V31.216H132.479V28.7122L135.539 27.8116V31.216H138.974V33.4988Z" fill="white"/>
<path d="M154.471 37.9435C154.471 40.0453 153.855 41.771 152.624 43.1205C151.333 44.5098 149.621 45.2024 147.485 45.2024C145.427 45.2024 143.789 44.5369 142.567 43.206C141.345 41.875 140.734 40.1949 140.734 38.17C140.734 36.051 141.363 34.3154 142.624 32.9659C143.883 31.615 145.581 30.9396 147.716 30.9396C149.774 30.9396 151.43 31.6051 152.68 32.9374C153.875 34.2299 154.471 35.8986 154.471 37.9435ZM151.238 38.0418C151.238 36.7806 150.962 35.6991 150.402 34.7971C149.749 33.7055 148.815 33.1611 147.605 33.1611C146.353 33.1611 145.401 33.7069 144.748 34.7971C144.188 35.7005 143.912 36.7992 143.912 38.0988C143.912 39.3599 144.188 40.4415 144.748 41.3421C145.422 42.4336 146.363 42.978 147.577 42.978C148.767 42.978 149.701 42.4222 150.375 41.3136C150.949 40.3945 151.238 39.3015 151.238 38.0418Z" fill="white"/>
<path d="M164.599 33.8907C164.291 33.8351 163.962 33.8066 163.617 33.8066C162.521 33.8066 161.673 34.2099 161.077 35.0179C160.558 35.7304 160.298 36.631 160.298 37.7183V44.8931H157.183L157.213 35.5252C157.213 33.9491 157.173 32.5142 157.096 31.2203H159.81L159.924 33.8366H160.01C160.339 32.9374 160.858 32.2135 161.568 31.6706C162.262 31.1818 163.012 30.9381 163.82 30.9381C164.108 30.9381 164.368 30.9581 164.599 30.9937V33.8907Z" fill="white"/>
<path d="M178.535 37.409C178.535 37.9534 178.499 38.4122 178.421 38.787H169.073C169.11 40.1379 169.561 41.171 170.43 41.8835C171.217 42.5205 172.236 42.8397 173.487 42.8397C174.871 42.8397 176.134 42.6245 177.27 42.1928L177.758 44.3018C176.431 44.8661 174.864 45.1468 173.056 45.1468C170.881 45.1468 169.174 44.5226 167.932 43.2758C166.692 42.0289 166.071 40.3545 166.071 38.2541C166.071 36.1921 166.649 34.475 167.805 33.1055C169.015 31.6435 170.65 30.9125 172.708 30.9125C174.729 30.9125 176.26 31.6435 177.299 33.1055C178.122 34.2669 178.535 35.7033 178.535 37.409ZM175.564 36.621C175.584 35.7204 175.381 34.9424 174.959 34.2854C174.42 33.4404 173.591 33.0186 172.476 33.0186C171.457 33.0186 170.628 33.4305 169.996 34.257C169.477 34.9139 169.168 35.7019 169.073 36.6196H175.564V36.621Z" fill="white"/>
<defs>
<linearGradient id="paint0_linear_6_5818" x1="-61.2958" y1="77.609" x2="-40.0326" y2="-29.728" gradientUnits="userSpaceOnUse">
<stop stop-color="#0D0D0F"/>
</linearGradient>
</defs>
</svg>
