<svg width="87" height="66" viewBox="0 0 87 66" fill="none" xmlns="http://www.w3.org/2000/svg">
<g filter="url(#filter0_d_6_5439)">
<g clip-path="url(#clip0_6_5439)">
<path d="M3.5 1H83.5V61H3.5V1Z" fill="#EE1C25"/>
<path d="M13.1 23.2L18.4999 7L23.8998 23.2L9.5 13.3H27.4998L13.1 23.2Z" fill="#FFFF00"/>
<path d="M36.5211 7.31045L30.9639 8.54197L34.6708 4.22239L34.3072 10.036L31.2233 4.8892L36.5211 7.31045Z" fill="#FFFF00"/>
<path d="M42.1298 14.4184L36.5299 13.3982L41.6219 10.8544L39.0321 16.0719L38.1857 10.1319L42.1298 14.4184Z" fill="#FFFF00"/>
<path d="M41.3128 24.3905L36.6159 21.1751L42.3026 20.9293L37.81 24.6369L39.4598 18.8682L41.3128 24.3905Z" fill="#FFFF00"/>
<path d="M34.2486 30.9051L31.1581 26.1251L36.4985 28.0948L30.9225 29.7795L34.6723 25.0956L34.2486 30.9051Z" fill="#FFFF00"/>
</g>
<rect x="3" y="0.5" width="81" height="61" rx="14.5" stroke="black" stroke-opacity="0.1" shape-rendering="crispEdges"/>
</g>
<defs>
<filter id="filter0_d_6_5439" x="0.5" y="0" width="86" height="66" filterUnits="userSpaceOnUse" color-interpolation-filters="sRGB">
<feFlood flood-opacity="0" result="BackgroundImageFix"/>
<feColorMatrix in="SourceAlpha" type="matrix" values="0 0 0 0 0 0 0 0 0 0 0 0 0 0 0 0 0 0 127 0" result="hardAlpha"/>
<feOffset dy="2"/>
<feGaussianBlur stdDeviation="1"/>
<feComposite in2="hardAlpha" operator="out"/>
<feColorMatrix type="matrix" values="0 0 0 0 0.28099 0 0 0 0 0.313411 0 0 0 0 0.345833 0 0 0 0.08 0"/>
<feBlend mode="normal" in2="BackgroundImageFix" result="effect1_dropShadow_6_5439"/>
<feBlend mode="normal" in="SourceGraphic" in2="effect1_dropShadow_6_5439" result="shape"/>
</filter>
<clipPath id="clip0_6_5439">
<rect x="3.5" y="1" width="80" height="60" rx="14" fill="white"/>
</clipPath>
</defs>
</svg>
