<svg width="87" height="66" viewBox="0 0 87 66" fill="none" xmlns="http://www.w3.org/2000/svg">
<g filter="url(#filter0_d_6_5456)">
<g clip-path="url(#clip0_6_5456)">
<path d="M3.5 1H83.5V61H3.5V1Z" fill="#000066"/>
<path fill-rule="evenodd" clip-rule="evenodd" d="M62.4498 27.625L63.0998 25.5375L61.3498 24.2125L63.5498 24.1875L64.2998 22.125L64.9998 24.1875L67.2123 24.25L65.4498 25.5625L66.0748 27.65L64.2623 26.4M67.6498 28.025L68.9498 26.2875L67.7373 24.4375L69.8248 25.1625L71.1998 23.475V25.675L73.2498 26.475L71.1498 27.1L71.0498 29.2875L69.7748 27.4875M57.4748 29.3625L57.3873 27.175L55.2873 26.525L57.3748 25.75V23.575L58.7373 25.2625L60.8373 24.5625L59.6123 26.4L60.8998 28.15L58.7748 27.5875M53.8248 32.7L52.8998 30.725L50.7248 30.95L52.3248 29.4125L51.4998 27.375L53.3998 28.4L55.0623 26.925L54.6373 29.1L56.4998 30.2125L54.3373 30.525M52.1248 37.475L50.4623 36.0875L48.5873 37.2375L49.3873 35.15L47.7748 33.7L49.9373 33.7875L50.8123 31.7375L51.3498 33.8875L53.4998 34.075L51.6748 35.3M52.0748 42.85L50.0123 42.25L48.7498 44.0625L48.6623 41.825L46.6123 41.1375L48.6248 40.3625V38.1125L49.9623 39.875L52.0123 39.175L50.8123 41.05M54.4998 47.4L52.3748 47.7L51.9373 49.875L50.9623 47.875L48.8248 48.075L50.3498 46.5375L49.4623 44.4875L51.3748 45.55L52.9748 44.075L52.6248 46.25M58.2498 51L56.3623 52.025L56.6873 54.225L55.0998 52.675L53.1498 53.625L54.0623 51.6375L52.5248 50.025L54.6873 50.35L55.6873 48.4125L56.1123 50.5875M62.8373 51.7125L61.7998 53.625L63.2623 55.275L61.0873 54.8625L59.9748 56.7375L59.6748 54.575L57.5248 54.075L59.4998 53.15L59.2873 50.9625L60.8123 52.5625M67.9873 50.925L67.9248 53.1L69.9623 53.9L67.8373 54.525L67.6873 56.7125L66.4373 54.925L64.3123 55.475L65.6623 53.7375L64.4873 51.9L66.5623 52.6125M73.3748 27.225L74.8748 28.8L76.8623 27.875L75.8248 29.85L77.2623 31.4875L75.1373 31.1375L74.0123 33.075L73.7498 30.875L71.6248 30.4375L73.5873 29.4375M77.8623 32.0625L78.5498 34.1375L80.7373 34.175L78.9623 35.5125L79.5498 37.6125L77.7873 36.3625L75.9623 37.625L76.6373 35.525L74.9123 34.2L77.1123 34.15M79.5498 38.3L79.2998 40.475L81.2623 41.4375L79.0998 41.8875L78.7623 44.05L77.6748 42.1625L75.4998 42.525L76.9998 40.9L75.9873 38.9625L77.9873 39.8625M78.3623 44.8375L77.3873 46.7875L78.8748 48.375L76.6998 48.0375L75.6498 49.95L75.2748 47.7875L73.0998 47.375L75.0498 46.375L74.7623 44.2L76.3373 45.7375M75.1123 50.625L73.2748 51.775L73.7498 53.9375L72.0623 52.5L70.1873 53.575L70.9748 51.5375L69.3373 50.025L71.5123 50.2125L72.3873 48.2125L72.9373 50.3625" fill="white"/>
<path d="M3.5 1H43.5V31H3.5V1Z" fill="#000066"/>
<path d="M8.1875 1L23.4375 12.3125L38.625 1H43.5V4.875L28.5 16.0625L43.5 27.1875V31H38.5L23.5 19.8125L8.5625 31H3.5V27.25L18.4375 16.125L3.5 5V1H8.1875Z" fill="white"/>
<path d="M30 18.5625L43.5 28.5V31L26.5625 18.5625H30ZM18.5 19.8125L18.875 22L6.875 31H3.5L18.5 19.8125ZM43.5 1V1.1875L27.9375 12.9375L28.0625 10.1875L40.375 1H43.5ZM3.5 1L18.4375 12H14.6875L3.5 3.625V1Z" fill="#C8102E"/>
<path d="M18.5625 1V31H28.5625V1H18.5625ZM3.5 11V21H43.5V11H3.5Z" fill="white"/>
<path d="M3.5 13.0625V19.0625H43.5V13.0625H3.5ZM20.5625 1V31H26.5625V1H20.5625Z" fill="#C8102E"/>
</g>
<rect x="3" y="0.5" width="81" height="61" rx="14.5" stroke="black" stroke-opacity="0.1" shape-rendering="crispEdges"/>
</g>
<defs>
<filter id="filter0_d_6_5456" x="0.5" y="0" width="86" height="66" filterUnits="userSpaceOnUse" color-interpolation-filters="sRGB">
<feFlood flood-opacity="0" result="BackgroundImageFix"/>
<feColorMatrix in="SourceAlpha" type="matrix" values="0 0 0 0 0 0 0 0 0 0 0 0 0 0 0 0 0 0 127 0" result="hardAlpha"/>
<feOffset dy="2"/>
<feGaussianBlur stdDeviation="1"/>
<feComposite in2="hardAlpha" operator="out"/>
<feColorMatrix type="matrix" values="0 0 0 0 0.28099 0 0 0 0 0.313411 0 0 0 0 0.345833 0 0 0 0.08 0"/>
<feBlend mode="normal" in2="BackgroundImageFix" result="effect1_dropShadow_6_5456"/>
<feBlend mode="normal" in="SourceGraphic" in2="effect1_dropShadow_6_5456" result="shape"/>
</filter>
<clipPath id="clip0_6_5456">
<rect x="3.5" y="1" width="80" height="60" rx="14" fill="white"/>
</clipPath>
</defs>
</svg>
