<svg width="87" height="66" viewBox="0 0 87 66" fill="none" xmlns="http://www.w3.org/2000/svg">
<g filter="url(#filter0_d_6_5487)">
<g clip-path="url(#clip0_6_5487)">
<path d="M3.5 1H83.5V61H3.5V1Z" fill="white"/>
<path d="M37.5 1H49.5V61H37.5V1Z" fill="#FF0000"/>
<path d="M3.5 25H83.5V37H3.5V25Z" fill="#FF0000"/>
<path fill-rule="evenodd" clip-rule="evenodd" d="M21.85 47.6375C21.975 45.5375 22.35 43.75 22.35 43.75C22.35 43.75 21.125 43.875 20.5 43.875C19.8875 43.875 18.65 43.75 18.65 43.75C18.65 43.75 19.025 45.5375 19.15 47.65C17.0375 47.525 15.25 47.15 15.25 47.15C15.25 47.15 15.375 48.075 15.375 49C15.375 49.925 15.25 50.85 15.25 50.85C15.25 50.85 17.0375 50.475 19.15 50.35C19.025 52.4625 18.65 54.25 18.65 54.25C18.65 54.25 19.575 54.125 20.5 54.125C21.425 54.125 22.35 54.25 22.35 54.25C22.35 54.25 21.975 52.4625 21.85 50.35C23.9625 50.475 25.75 50.85 25.75 50.85C25.75 50.85 25.625 49.625 25.625 49C25.625 48.3875 25.75 47.15 25.75 47.15C25.75 47.15 23.9625 47.525 21.8625 47.65L21.85 47.6375ZM67.85 11.6375C67.975 9.5375 68.35 7.75 68.35 7.75C68.35 7.75 67.125 7.875 66.5 7.875C65.8875 7.875 64.65 7.75 64.65 7.75C64.65 7.75 65.025 9.5375 65.15 11.6375C63.0375 11.5125 61.25 11.15 61.25 11.15C61.25 11.15 61.375 12.075 61.375 13C61.375 13.925 61.25 14.85 61.25 14.85C61.25 14.85 63.0375 14.475 65.15 14.35C65.025 16.4625 64.65 18.25 64.65 18.25C64.65 18.25 65.575 18.125 66.5 18.125C67.425 18.125 68.35 18.25 68.35 18.25C68.35 18.25 67.975 16.4625 67.85 14.3625C69.9625 14.4875 71.75 14.8625 71.75 14.8625C71.75 14.8625 71.625 13.6125 71.625 13C71.625 12.3875 71.75 11.15 71.75 11.15C71.75 11.15 69.9625 11.525 67.85 11.65V11.6375ZM21.85 11.6375C21.975 9.5375 22.35 7.75 22.35 7.75C22.35 7.75 21.125 7.875 20.5 7.875C19.8875 7.875 18.65 7.75 18.65 7.75C18.65 7.75 19.025 9.5375 19.15 11.65C17.0375 11.525 15.25 11.15 15.25 11.15C15.25 11.15 15.375 12.075 15.375 13C15.375 13.925 15.25 14.85 15.25 14.85C15.25 14.85 17.0375 14.475 19.15 14.35C19.025 16.4625 18.65 18.25 18.65 18.25C18.65 18.25 19.575 18.125 20.5 18.125C21.425 18.125 22.35 18.25 22.35 18.25C22.35 18.25 21.975 16.4625 21.85 14.35C23.9625 14.475 25.75 14.85 25.75 14.85C25.75 14.85 25.625 13.625 25.625 13C25.625 12.3875 25.75 11.15 25.75 11.15C25.75 11.15 23.9625 11.525 21.8625 11.65L21.85 11.6375ZM67.85 47.6375C67.975 45.5375 68.35 43.75 68.35 43.75C68.35 43.75 67.125 43.875 66.5 43.875C65.8875 43.875 64.65 43.75 64.65 43.75C64.65 43.75 65.025 45.5375 65.15 47.65C63.0375 47.525 61.25 47.15 61.25 47.15C61.25 47.15 61.375 48.075 61.375 49C61.375 49.925 61.25 50.85 61.25 50.85C61.25 50.85 63.0375 50.475 65.15 50.35C65.025 52.4625 64.65 54.25 64.65 54.25C64.65 54.25 65.575 54.125 66.5 54.125C67.425 54.125 68.35 54.25 68.35 54.25C68.35 54.25 67.975 52.4625 67.85 50.35C69.9625 50.475 71.75 50.85 71.75 50.85C71.75 50.85 71.625 49.625 71.625 49C71.625 48.3875 71.75 47.15 71.75 47.15C71.75 47.15 69.9625 47.525 67.85 47.65V47.6375Z" fill="#FF0000"/>
</g>
<rect x="3" y="0.5" width="81" height="61" rx="14.5" stroke="black" stroke-opacity="0.1" shape-rendering="crispEdges"/>
</g>
<defs>
<filter id="filter0_d_6_5487" x="0.5" y="0" width="86" height="66" filterUnits="userSpaceOnUse" color-interpolation-filters="sRGB">
<feFlood flood-opacity="0" result="BackgroundImageFix"/>
<feColorMatrix in="SourceAlpha" type="matrix" values="0 0 0 0 0 0 0 0 0 0 0 0 0 0 0 0 0 0 127 0" result="hardAlpha"/>
<feOffset dy="2"/>
<feGaussianBlur stdDeviation="1"/>
<feComposite in2="hardAlpha" operator="out"/>
<feColorMatrix type="matrix" values="0 0 0 0 0.28099 0 0 0 0 0.313411 0 0 0 0 0.345833 0 0 0 0.08 0"/>
<feBlend mode="normal" in2="BackgroundImageFix" result="effect1_dropShadow_6_5487"/>
<feBlend mode="normal" in="SourceGraphic" in2="effect1_dropShadow_6_5487" result="shape"/>
</filter>
<clipPath id="clip0_6_5487">
<rect x="3.5" y="1" width="80" height="60" rx="14" fill="white"/>
</clipPath>
</defs>
</svg>
