<svg width="198" height="57" viewBox="0 0 198 57" fill="none" xmlns="http://www.w3.org/2000/svg">
<path d="M190.23 57H7.53816C3.52076 57 0.230469 53.792 0.230469 49.875V7.125C0.230469 3.20803 3.52076 6.50331e-07 7.53816 6.50331e-07H190.23C194.248 6.50331e-07 197.538 3.20803 197.538 7.125V49.875C197.538 53.792 194.248 57 190.23 57Z" fill="url(#paint0_linear_6_5819)"/>
<path d="M190.23 1.14178C193.614 1.14178 196.367 3.82613 196.367 7.125V49.875C196.367 53.1739 193.614 55.8582 190.23 55.8582H7.53816C4.1547 55.8582 1.40153 53.1739 1.40153 49.875V7.125C1.40153 3.82613 4.1547 1.14178 7.53816 1.14178H190.23ZM190.23 6.50331e-07H7.53816C3.52076 6.50331e-07 0.230469 3.20803 0.230469 7.125V49.875C0.230469 53.792 3.52076 57 7.53816 57H190.23C194.248 57 197.538 53.792 197.538 49.875V7.125C197.538 3.20803 194.248 6.50331e-07 190.23 6.50331e-07Z" fill="white"/>
<path d="M14.3848 10.7427C13.9555 11.1809 13.707 11.8631 13.707 12.7466V44.2605C13.707 45.144 13.9555 45.8262 14.3848 46.2644L14.4908 46.3606L32.6029 28.7084V28.2916L14.4908 10.6394L14.3848 10.7427Z" fill="white"/>
<path d="M40.8256 34.5953L34.7949 28.7083V28.2915L40.8329 22.4045L40.9681 22.4811L48.1187 26.4479C50.1593 27.5736 50.1593 29.4261 48.1187 30.559L40.9681 34.5187L40.8256 34.5953V34.5953Z" fill="white"/>
<path d="M39.8717 35.615L33.6985 29.5961L15.4805 47.3605C16.1583 48.0552 17.2635 48.1389 18.5205 47.4443L39.8717 35.615" fill="white"/>
<path d="M39.8717 21.385L18.5205 9.55569C17.2635 8.86813 16.1583 8.95184 15.4805 9.64653L33.6985 27.4038L39.8717 21.385Z" fill="white"/>
<path d="M69.5332 14.5973C69.5332 15.7872 69.1678 16.7402 68.448 17.4509C67.6204 18.2934 66.5425 18.7173 65.2216 18.7173C63.9592 18.7173 62.8813 18.2863 61.9971 17.4366C61.1111 16.5745 60.6689 15.5164 60.6689 14.25C60.6689 12.9835 61.1111 11.9254 61.9971 11.0704C62.8813 10.2137 63.9592 9.78259 65.2216 9.78259C65.8501 9.78259 66.4493 9.90906 67.0212 10.1442C67.5912 10.3811 68.0552 10.7017 68.3913 11.0972L67.6277 11.8488C67.0413 11.1738 66.2429 10.8407 65.2216 10.8407C64.3009 10.8407 63.5025 11.1542 62.8247 11.7865C62.1542 12.4206 61.8181 13.2418 61.8181 14.25C61.8181 15.2582 62.1542 16.0864 62.8247 16.7206C63.5025 17.3458 64.3009 17.6664 65.2216 17.6664C66.199 17.6664 67.0212 17.3458 67.6697 16.7134C68.0972 16.2948 68.3402 15.7177 68.4041 14.9803H65.2216V13.9507H69.4674C69.5186 14.1734 69.5332 14.3889 69.5332 14.5973V14.5973Z" fill="white" stroke="white" stroke-opacity="0.2" stroke-width="0.175385" stroke-miterlimit="10"/>
<path d="M76.2686 11.0275H72.2804V13.735H75.8758V14.7646H72.2804V17.4721H76.2686V18.5213H71.1514V9.97839H76.2686V11.0275Z" fill="white" stroke="white" stroke-opacity="0.2" stroke-width="0.175385" stroke-miterlimit="10"/>
<path d="M81.0226 18.5213H79.8935V11.0275H77.4473V9.97839H83.4706V11.0275H81.0226V18.5213V18.5213Z" fill="white" stroke="white" stroke-opacity="0.2" stroke-width="0.175385" stroke-miterlimit="10"/>
<path d="M87.8301 18.5213V9.97839H88.9573V18.5213H87.8301Z" fill="white" stroke="white" stroke-opacity="0.2" stroke-width="0.175385" stroke-miterlimit="10"/>
<path d="M93.9542 18.5213H92.8343V11.0275H90.3789V9.97839H96.4096V11.0275H93.9542V18.5213Z" fill="white" stroke="white" stroke-opacity="0.2" stroke-width="0.175385" stroke-miterlimit="10"/>
<path d="M107.812 17.4224C106.948 18.2863 105.878 18.7173 104.601 18.7173C103.316 18.7173 102.246 18.2863 101.381 17.4224C100.519 16.5602 100.09 15.5022 100.09 14.25C100.09 12.9977 100.519 11.9397 101.381 11.0776C102.246 10.2137 103.316 9.78259 104.601 9.78259C105.87 9.78259 106.941 10.2137 107.805 11.0847C108.675 11.9539 109.104 13.0049 109.104 14.25C109.104 15.5022 108.675 16.5602 107.812 17.4224ZM102.216 16.7063C102.867 17.3458 103.658 17.6664 104.601 17.6664C105.536 17.6664 106.334 17.3458 106.977 16.7063C107.626 16.0668 107.955 15.2457 107.955 14.25C107.955 13.2542 107.626 12.4331 106.977 11.7936C106.334 11.1542 105.536 10.8335 104.601 10.8335C103.658 10.8335 102.867 11.1542 102.216 11.7936C101.568 12.4331 101.239 13.2542 101.239 14.25C101.239 15.2457 101.568 16.0668 102.216 16.7063V16.7063Z" fill="white" stroke="white" stroke-opacity="0.2" stroke-width="0.175385" stroke-miterlimit="10"/>
<path d="M110.688 18.5213V9.97839H112.059L116.319 16.6225H116.368L116.319 14.9801V9.97839H117.446V18.5213H116.27L111.808 11.5495H111.759L111.808 13.1989V18.5213H110.688V18.5213Z" fill="white" stroke="white" stroke-opacity="0.2" stroke-width="0.175385" stroke-miterlimit="10"/>
<path d="M99.8123 30.9973C96.3795 30.9973 93.5752 33.5445 93.5752 37.0589C93.5752 40.5448 96.3795 43.1187 99.8123 43.1187C103.252 43.1187 106.057 40.5448 106.057 37.0589C106.057 33.5445 103.252 30.9973 99.8123 30.9973ZM99.8123 40.7318C97.9287 40.7318 96.3082 39.216 96.3082 37.0589C96.3082 34.8733 97.9287 33.3842 99.8123 33.3842C101.696 33.3842 103.324 34.8733 103.324 37.0589C103.324 39.216 101.696 40.7318 99.8123 40.7318V40.7318ZM86.2035 30.9973C82.7634 30.9973 79.9664 33.5445 79.9664 37.0589C79.9664 40.5448 82.7634 43.1187 86.2035 43.1187C89.6418 43.1187 92.4407 40.5448 92.4407 37.0589C92.4407 33.5445 89.6418 30.9973 86.2035 30.9973ZM86.2035 40.7318C84.3182 40.7318 82.6922 39.216 82.6922 37.0589C82.6922 34.8733 84.3182 33.3842 86.2035 33.3842C88.0871 33.3842 89.7076 34.8733 89.7076 37.0589C89.7076 39.216 88.0871 40.7318 86.2035 40.7318ZM70.0097 32.8551V35.4308H76.3181C76.1335 36.8701 75.6403 37.9281 74.8839 38.6656C73.9632 39.5562 72.529 40.5448 70.0097 40.5448C66.1275 40.5448 63.0875 37.49 63.0875 33.7048C63.0875 29.9196 66.1275 26.8648 70.0097 26.8648C72.1088 26.8648 73.6361 27.6646 74.7634 28.7013L76.625 26.8862C75.0484 25.4184 72.951 24.2909 70.0097 24.2909C64.686 24.2909 60.2119 28.5142 60.2119 33.7048C60.2119 38.8954 64.686 43.1187 70.0097 43.1187C72.8871 43.1187 75.0483 42.1996 76.7474 40.4753C78.4884 38.7778 79.031 36.3909 79.031 34.4636C79.031 33.8651 78.9799 33.3147 78.8885 32.8551H70.0097ZM136.228 34.8519C135.715 33.4964 134.131 30.9973 130.905 30.9973C127.708 30.9973 125.046 33.4536 125.046 37.0589C125.046 40.454 127.68 43.1187 131.212 43.1187C134.067 43.1187 135.715 41.4212 136.393 40.4326L134.274 39.0557C133.567 40.0639 132.604 40.7318 131.212 40.7318C129.829 40.7318 128.837 40.1137 128.201 38.8954L136.515 35.5413L136.228 34.8519V34.8519ZM127.751 36.8701C127.68 34.5331 129.613 33.3361 130.998 33.3361C132.083 33.3361 133.004 33.8651 133.311 34.6221L127.751 36.8701V36.8701ZM120.994 42.75H123.727V24.9375H120.994V42.75ZM116.518 32.3475H116.426C115.812 31.6386 114.641 30.9973 113.158 30.9973C110.045 30.9973 107.199 33.6621 107.199 37.0785C107.199 40.4753 110.045 43.1187 113.158 43.1187C114.641 43.1187 115.812 42.4721 116.426 41.7418H116.518V42.6111C116.518 44.9285 115.248 46.1736 113.2 46.1736C111.53 46.1736 110.494 44.9979 110.067 44.0093L107.69 44.9766C108.375 46.5832 110.189 48.5604 113.2 48.5604C116.404 48.5604 119.108 46.7222 119.108 42.2495V31.366H116.518V32.3475V32.3475ZM113.392 40.7318C111.508 40.7318 109.932 39.1946 109.932 37.0785C109.932 34.9428 111.508 33.3842 113.392 33.3842C115.248 33.3842 116.711 34.9428 116.711 37.0785C116.711 39.1946 115.248 40.7318 113.392 40.7318V40.7318ZM149.024 24.9375H142.487V42.75H145.213V36.0008H149.024C152.051 36.0008 155.02 33.8651 155.02 30.4683C155.02 27.0732 152.044 24.9375 149.024 24.9375V24.9375ZM149.095 33.5231H145.213V27.4152H149.095C151.131 27.4152 152.292 29.0629 152.292 30.4683C152.292 31.847 151.131 33.5231 149.095 33.5231ZM165.945 30.9635C163.976 30.9635 161.928 31.8113 161.085 33.6906L163.504 34.6791C164.025 33.6906 164.982 33.3699 165.994 33.3699C167.408 33.3699 168.843 34.1982 168.864 35.6606V35.8476C168.371 35.5698 167.315 35.1583 166.016 35.1583C163.411 35.1583 160.757 36.5566 160.757 39.1661C160.757 41.553 162.89 43.0902 165.289 43.0902C167.123 43.0902 168.136 42.2833 168.771 41.3446H168.864V42.7215H171.497V35.8886C171.497 32.7305 169.078 30.9635 165.945 30.9635ZM165.616 40.7247C164.725 40.7247 163.482 40.2936 163.482 39.216C163.482 37.8373 165.032 37.3083 166.373 37.3083C167.573 37.3083 168.136 37.5666 168.864 37.9068C168.651 39.5562 167.195 40.7247 165.616 40.7247V40.7247ZM181.088 31.3536L177.955 39.0753H177.862L174.623 31.3536H171.683L176.55 42.1444L173.773 48.149H176.622L184.121 31.3536H181.088V31.3536ZM156.518 42.75H159.251V24.9375H156.518V42.75Z" fill="white"/>
<defs>
<linearGradient id="paint0_linear_6_5819" x1="-62.8621" y1="-22.5349" x2="-40.2016" y2="88.7756" gradientUnits="userSpaceOnUse">
<stop stop-color="#0D0D0F"/>
</linearGradient>
</defs>
</svg>
