<svg width="53" height="52" viewBox="0 0 53 52" fill="none" xmlns="http://www.w3.org/2000/svg">
<g filter="url(#filter0_d_6_5281)">
<rect x="2.66699" width="48" height="48" rx="8" fill="white" shape-rendering="crispEdges"/>
<rect x="3.16699" y="0.5" width="47" height="47" rx="7.5" stroke="#2E3539" stroke-opacity="0.1" shape-rendering="crispEdges"/>
<path fill-rule="evenodd" clip-rule="evenodd" d="M30.3741 20.2929C30.7646 20.6834 30.7646 21.3166 30.3741 21.7071L24.3741 27.7071C23.9836 28.0976 23.3504 28.0976 22.9599 27.7071C22.5694 27.3166 22.5694 26.6834 22.9599 26.2929L28.9599 20.2929C29.3504 19.9024 29.9836 19.9024 30.3741 20.2929Z" fill="url(#paint0_linear_6_5281)"/>
<path d="M30.667 26.5C30.667 27.3284 29.9954 28 29.167 28C28.3386 28 27.667 27.3284 27.667 26.5C27.667 25.6716 28.3386 25 29.167 25C29.9954 25 30.667 25.6716 30.667 26.5Z" fill="url(#paint1_linear_6_5281)"/>
<path d="M25.667 21.5C25.667 22.3284 24.9954 23 24.167 23C23.3386 23 22.667 22.3284 22.667 21.5C22.667 20.6716 23.3386 20 24.167 20C24.9954 20 25.667 20.6716 25.667 21.5Z" fill="url(#paint2_linear_6_5281)"/>
<path fill-rule="evenodd" clip-rule="evenodd" d="M24.0021 15.0405C25.52 13.6841 27.8145 13.6841 29.3325 15.0405L29.5742 15.2564C29.912 15.5582 30.3422 15.7365 30.7945 15.7619L31.1181 15.7801C33.1505 15.8943 34.773 17.5168 34.8872 19.5492L34.9054 19.8728C34.9309 20.3251 35.1091 20.7554 35.4109 21.0932L35.6269 21.3348C36.9832 22.8528 36.9832 25.1473 35.6269 26.6652L35.4109 26.9069C35.1091 27.2447 34.9309 27.675 34.9054 28.1273L34.8872 28.4509C34.773 30.4833 33.1505 32.1057 31.1181 32.22L30.7945 32.2382C30.3422 32.2636 29.912 32.4418 29.5742 32.7437L29.3325 32.9596C27.8145 34.316 25.52 34.316 24.0021 32.9596L23.7604 32.7437C23.4226 32.4418 22.9924 32.2636 22.5401 32.2382L22.2165 32.22C20.184 32.1057 18.5616 30.4833 18.4473 28.4508L18.4291 28.1273C18.4037 27.675 18.2255 27.2447 17.9236 26.9069L17.7077 26.6652C16.3513 25.1473 16.3513 22.8528 17.7077 21.3348L17.9236 21.0932C18.2255 20.7554 18.4037 20.3251 18.4291 19.8728L18.4473 19.5492C18.5616 17.5168 20.184 15.8943 22.2165 15.7801L22.5401 15.7619C22.9924 15.7365 23.4226 15.5582 23.7604 15.2564L24.0021 15.0405ZM27.9999 16.5318C27.2409 15.8536 26.0937 15.8536 25.3347 16.5318L25.093 16.7478C24.4174 17.3514 23.5569 17.7079 22.6523 17.7587L22.3287 17.7769C21.3125 17.8341 20.5013 18.6453 20.4442 19.6615L20.426 19.9851C20.3751 20.8897 20.0187 21.7502 19.415 22.4258L19.1991 22.6674C18.5209 23.4264 18.5209 24.5737 19.1991 25.3326L19.415 25.5743C20.0187 26.2499 20.3751 27.1104 20.426 28.015L20.4442 28.3386C20.5013 29.3548 21.3125 30.166 22.3287 30.2232L22.6523 30.2414C23.5569 30.2922 24.4174 30.6486 25.093 31.2523L25.3347 31.4683C26.0937 32.1464 27.2409 32.1464 27.9999 31.4683L28.2416 31.2523C28.9171 30.6486 29.7777 30.2922 30.6822 30.2414L31.0058 30.2232C32.022 30.166 32.8333 29.3548 32.8904 28.3386L32.9086 28.015C32.9594 27.1104 33.3159 26.2499 33.9195 25.5743L34.1355 25.3326C34.8137 24.5737 34.8137 23.4264 34.1355 22.6674L33.9195 22.4258C33.3159 21.7502 32.9594 20.8897 32.9086 19.9851L32.8904 19.6615C32.8333 18.6453 32.022 17.8341 31.0058 17.7769L30.6822 17.7587C29.7777 17.7079 28.9171 17.3514 28.2416 16.7478L27.9999 16.5318Z" fill="url(#paint3_linear_6_5281)"/>
</g>
<defs>
<filter id="filter0_d_6_5281" x="0.666992" y="0" width="52" height="52" filterUnits="userSpaceOnUse" color-interpolation-filters="sRGB">
<feFlood flood-opacity="0" result="BackgroundImageFix"/>
<feColorMatrix in="SourceAlpha" type="matrix" values="0 0 0 0 0 0 0 0 0 0 0 0 0 0 0 0 0 0 127 0" result="hardAlpha"/>
<feOffset dy="2"/>
<feGaussianBlur stdDeviation="1"/>
<feComposite in2="hardAlpha" operator="out"/>
<feColorMatrix type="matrix" values="0 0 0 0 0.28099 0 0 0 0 0.313411 0 0 0 0 0.345833 0 0 0 0.08 0"/>
<feBlend mode="normal" in2="BackgroundImageFix" result="effect1_dropShadow_6_5281"/>
<feBlend mode="normal" in="SourceGraphic" in2="effect1_dropShadow_6_5281" result="shape"/>
</filter>
<linearGradient id="paint0_linear_6_5281" x1="26.667" y1="20" x2="26.667" y2="28" gradientUnits="userSpaceOnUse">
<stop stop-color="#2E3539"/>
<stop offset="1" stop-color="#2E3539" stop-opacity="0.22"/>
</linearGradient>
<linearGradient id="paint1_linear_6_5281" x1="29.167" y1="25" x2="29.167" y2="28" gradientUnits="userSpaceOnUse">
<stop stop-color="#2E3539"/>
<stop offset="1" stop-color="#2E3539" stop-opacity="0.22"/>
</linearGradient>
<linearGradient id="paint2_linear_6_5281" x1="24.167" y1="20" x2="24.167" y2="23" gradientUnits="userSpaceOnUse">
<stop stop-color="#2E3539"/>
<stop offset="1" stop-color="#2E3539" stop-opacity="0.22"/>
</linearGradient>
<linearGradient id="paint3_linear_6_5281" x1="26.6673" y1="14.0232" x2="26.6673" y2="33.9769" gradientUnits="userSpaceOnUse">
<stop stop-color="#2E3539"/>
<stop offset="1" stop-color="#2E3539" stop-opacity="0.22"/>
</linearGradient>
</defs>
</svg>
